<?xml version="1.0" encoding="UTF-8" standalone="no"?>
<!DOCTYPE svg PUBLIC "-//W3C//DTD SVG 1.1//EN" "http://www.w3.org/Graphics/SVG/1.1/DTD/svg11.dtd">
<svg width="100%" height="100%" viewBox="0 0 64 64" version="1.1" xmlns="http://www.w3.org/2000/svg" xmlns:xlink="http://www.w3.org/1999/xlink" xml:space="preserve" xmlns:serif="http://www.serif.com/" style="fill-rule:evenodd;clip-rule:evenodd;stroke-linecap:round;stroke-linejoin:round;stroke-miterlimit:1.5;">
    <g transform="matrix(1.02941,0,0,1,-0.0882353,0)">
        <path d="M37,26.5C37,24.568 35.477,23 33.6,23L6.4,23C4.523,23 3,24.568 3,26.5L3,56.5C3,58.432 4.523,60 6.4,60L33.6,60C35.477,60 37,58.432 37,56.5L37,26.5Z" style="fill:none;stroke:black;stroke-width:1.97px;"/>
    </g>
    <g transform="matrix(1,0,0,1,-0.5,0)">
        <rect x="3" y="3" width="1" height="16.834" style="stroke:black;stroke-width:1.5px;"/>
    </g>
    <g transform="matrix(0.707107,0.707107,-0.707107,0.707107,48.6811,7.17444)">
        <rect x="3" y="3" width="1" height="16.834" style="fill:none;stroke:black;stroke-width:1px;"/>
    </g>
    <g transform="matrix(-0.00688401,0.956808,-0.643575,-0.00463037,50.7923,8.68167)">
        <rect x="3" y="3" width="1" height="16.834" style="fill:none;stroke:black;stroke-width:1.23px;"/>
    </g>
    <g transform="matrix(0.956833,-8.67362e-19,-8.67362e-19,0.643591,45.492,9.48631)">
        <rect x="3" y="3" width="1" height="16.834" style="fill:none;stroke:black;stroke-width:1.23px;"/>
    </g>
    <g transform="matrix(6.12323e-17,1,-1.13868,6.97238e-17,64.1676,56)">
        <rect x="3" y="3" width="1" height="16.834" style="stroke:black;stroke-width:1.4px;"/>
    </g>
    <g transform="matrix(-1.5,1.83697e-16,-4.0375e-16,-3.29687,66.0016,68.8906)">
        <rect x="3" y="3" width="1" height="16.834" style="stroke:black;stroke-width:0.59px;"/>
    </g>
    <g transform="matrix(8.13888e-17,-1.50001,3.43069,-3.54098e-17,-7.29336,8.75003)">
        <rect x="3" y="3" width="1" height="16.834" style="stroke:black;stroke-width:0.57px;"/>
    </g>
</svg>
