<?xml version="1.0" encoding="UTF-8" standalone="no"?>
<!DOCTYPE svg PUBLIC "-//W3C//DTD SVG 1.1//EN" "http://www.w3.org/Graphics/SVG/1.1/DTD/svg11.dtd">
<svg width="100%" height="100%" viewBox="0 0 48 48" version="1.1" xmlns="http://www.w3.org/2000/svg" xmlns:xlink="http://www.w3.org/1999/xlink" xml:space="preserve" xmlns:serif="http://www.serif.com/" style="fill-rule:evenodd;clip-rule:evenodd;stroke-linejoin:round;stroke-miterlimit:2;">
    <g transform="matrix(1,0,0,1,-0.604194,1.12353)">
        <path d="M43.938,8.002C43.938,6.735 42.91,5.706 41.643,5.706L7.566,5.706C6.299,5.706 5.27,6.735 5.27,8.002L5.27,26.37C5.27,27.637 6.299,28.666 7.566,28.666L41.643,28.666C42.91,28.666 43.938,27.637 43.938,26.37L43.938,8.002Z" style="fill:rgb(235,235,235);"/>
        <path d="M43.938,8.002C43.938,6.735 42.91,5.706 41.643,5.706L7.566,5.706C6.299,5.706 5.27,6.735 5.27,8.002L5.27,26.37C5.27,27.637 6.299,28.666 7.566,28.666L41.643,28.666C42.91,28.666 43.938,27.637 43.938,26.37L43.938,8.002ZM43.522,8.002L43.522,26.37C43.522,27.407 42.68,28.249 41.643,28.249L7.566,28.249C6.529,28.249 5.687,27.407 5.687,26.37C5.687,26.37 5.687,8.002 5.687,8.002C5.687,6.965 6.529,6.123 7.566,6.123L41.643,6.123C42.68,6.123 43.522,6.965 43.522,8.002Z"/>
    </g>
    <g transform="matrix(1,0,0,0.5,-0.772028,21.366)">
        <path d="M40.112,35.862C40.112,35.633 40.019,35.446 39.904,35.446L9.64,35.446C9.525,35.446 9.432,35.633 9.432,35.862L9.432,39.192C9.432,39.422 9.525,39.608 9.64,39.608L39.904,39.608C40.019,39.608 40.112,39.422 40.112,39.192L40.112,35.862Z"/>
    </g>
    <g transform="matrix(7.0985,0,0,1.0091,-148.509,0.862812)">
        <rect x="24" y="28.666" width="0.604" height="11.278" style="fill:rgb(6,0,0);"/>
    </g>
    <g transform="matrix(1,0,0,1,-0.294848,0.873935)">
        <rect x="10.775" y="10.473" width="6.31" height="0.336"/>
    </g>
    <g transform="matrix(1,0,0,1,19.845,-2.28131)">
        <rect x="10.775" y="10.473" width="6.31" height="0.336"/>
    </g>
    <g transform="matrix(3.87762,0,0,2.82107,-35.1961,-12.9941)">
        <ellipse cx="11.983" cy="7.569" rx="0.067" ry="0.084"/>
    </g>
    <g transform="matrix(3.87762,0,0,2.82107,-34.4291,-12.9941)">
        <ellipse cx="11.983" cy="7.569" rx="0.067" ry="0.084"/>
    </g>
    <g transform="matrix(3.87762,0,0,2.82107,-33.7371,-12.9941)">
        <ellipse cx="11.983" cy="7.569" rx="0.067" ry="0.084"/>
    </g>
    <g transform="matrix(6.04957,0,0,0.7952,-60.1609,0.937628)">
        <rect x="10.775" y="10.473" width="6.31" height="0.336"/>
    </g>
    <g transform="matrix(1,0,0,1,-0.294848,1.74666)">
        <rect x="10.775" y="10.473" width="6.31" height="0.336"/>
    </g>
    <g transform="matrix(1,0,0,1,-0.294848,8.59421)">
        <rect x="10.775" y="10.473" width="6.31" height="0.336"/>
    </g>
    <g transform="matrix(1,0,0,1,-0.294848,9.80261)">
        <rect x="10.775" y="10.473" width="6.31" height="0.336"/>
    </g>
    <g transform="matrix(1.81915,0,0,0.599998,-9.12103,8.48682)">
        <rect x="10.775" y="10.473" width="6.31" height="0.336"/>
    </g>
    <g transform="matrix(1.81915,0,0,0.599998,-9.12103,9.69521)">
        <rect x="10.775" y="10.473" width="6.31" height="0.336"/>
    </g>
    <g transform="matrix(1.81915,0,0,0.599998,-9.12103,10.8365)">
        <rect x="10.775" y="10.473" width="6.31" height="0.336"/>
    </g>
</svg>
