<?xml version="1.0" encoding="UTF-8" standalone="no"?>
<!DOCTYPE svg PUBLIC "-//W3C//DTD SVG 1.1//EN" "http://www.w3.org/Graphics/SVG/1.1/DTD/svg11.dtd">
<svg width="100%" height="100%" viewBox="0 0 48 48" version="1.1" xmlns="http://www.w3.org/2000/svg" xmlns:xlink="http://www.w3.org/1999/xlink" xml:space="preserve" xmlns:serif="http://www.serif.com/" style="fill-rule:evenodd;clip-rule:evenodd;stroke-linejoin:round;stroke-miterlimit:2;">
    <g transform="matrix(0.0860198,0,0,0.0860198,-6.10823,-0.0848661)">
        <path d="M350,29.941C291.5,29.941 240.28,39.972 204.34,56.187C168.399,72.402 148.824,94.042 148.824,117.039L148.824,442.809C148.824,465.805 168.437,487.473 204.375,503.723C240.316,519.977 291.512,530.043 350.015,530.043C408.518,530.043 459.715,520 495.655,503.762C531.596,487.524 551.206,465.879 551.206,442.809L551.206,117.039C551.206,94.043 531.632,72.414 495.69,56.187C459.749,39.96 408.53,29.941 350.03,29.941L350,29.941ZM350,42.039C404.469,42.039 450.76,51.086 483.96,64.539C500.562,71.273 513.925,79.074 523.472,87.773C533.015,96.472 539.054,106.425 539.054,117.14C539.054,127.855 533.019,137.796 523.472,146.507C513.929,155.218 500.562,163.007 483.96,169.741C450.757,183.206 404.464,192.276 350,192.276C295.536,192.276 249.24,183.206 216.04,169.741C199.438,163.007 186.075,155.206 176.528,146.507C166.985,137.808 160.946,127.855 160.946,117.14C160.946,106.425 166.981,96.468 176.528,87.773C186.071,79.074 199.438,71.273 216.04,64.539C249.243,51.074 295.536,42.039 350,42.039ZM539.05,149.259L539.05,225.654C539.05,236.345 533.015,246.263 523.468,254.947C513.925,263.635 500.558,271.447 483.956,278.181C450.753,291.658 404.46,300.755 349.996,300.755C295.532,300.755 249.236,291.708 216.036,278.255C199.434,271.521 186.071,263.72 176.524,255.021C166.981,246.322 160.942,236.369 160.942,225.654L160.942,149.318L172.044,158.466C204.661,185.384 270.556,204.275 350.004,204.275C429.449,204.275 495.434,185.373 527.924,158.466L539.05,149.259ZM539.05,257.879L539.05,334.238C539.05,344.929 533.015,354.847 523.468,363.531C513.925,372.219 500.558,380.058 483.956,386.801C450.753,400.278 404.46,409.375 349.996,409.375C295.532,409.375 249.236,400.305 216.036,386.84C199.434,380.106 186.071,372.305 176.524,363.606C166.981,354.907 160.942,344.954 160.942,334.239L160.942,257.942L172.044,267.09C204.661,294.008 270.556,312.899 350.004,312.899C429.449,312.899 495.434,293.997 527.924,267.09L539.05,257.879ZM539.05,366.359L539.05,442.754C539.05,453.469 533.015,463.426 523.468,472.121C513.925,480.82 500.558,488.621 483.956,495.355C450.753,508.82 404.46,517.855 349.996,517.855C295.532,517.855 249.236,508.808 216.036,495.355C199.434,488.621 186.071,480.82 176.524,472.121C166.981,463.422 160.942,453.469 160.942,442.754L160.942,366.418L172.044,375.566C204.661,402.484 270.556,421.375 350.004,421.375C429.449,421.375 495.434,402.473 527.924,375.566L539.05,366.359Z" style="fill-rule:nonzero;"/>
    </g>
    <g transform="matrix(15.0365,0,0,15.6856,-169.219,-80.7375)">
        <ellipse cx="11.983" cy="7.569" rx="0.067" ry="0.084"/>
    </g>
    <g transform="matrix(15.0365,0,0,15.6856,-169.219,-90.6588)">
        <ellipse cx="11.983" cy="7.569" rx="0.067" ry="0.084"/>
    </g>
    <g transform="matrix(15.0365,0,0,15.6856,-169.219,-99.6546)">
        <ellipse cx="11.983" cy="7.569" rx="0.067" ry="0.084"/>
    </g>
</svg>
