<?xml version="1.0" encoding="UTF-8" standalone="no"?>
<!DOCTYPE svg PUBLIC "-//W3C//DTD SVG 1.1//EN" "http://www.w3.org/Graphics/SVG/1.1/DTD/svg11.dtd">
<svg width="100%" height="100%" viewBox="0 0 64 64" version="1.1" xmlns="http://www.w3.org/2000/svg" xmlns:xlink="http://www.w3.org/1999/xlink" xml:space="preserve" xmlns:serif="http://www.serif.com/" style="fill-rule:evenodd;clip-rule:evenodd;stroke-linecap:round;stroke-linejoin:round;stroke-miterlimit:1.5;">
    <g transform="matrix(1,0,0,1,-2,12)">
        <path d="M20.861,44.5C21.607,42.828 22,40.931 22,39C22,32.929 18.191,28 13.5,28C8.809,28 5,32.929 5,39C5,40.931 5.393,42.828 6.139,44.5L20.861,44.5Z" style="fill:none;stroke:black;stroke-width:2px;"/>
    </g>
    <g transform="matrix(1,0,0,1.31818,20,-2.15909)">
        <path d="M20.861,44.5C21.607,42.828 22,40.931 22,39C22,32.929 18.191,28 13.5,28C8.809,28 5,32.929 5,39C5,40.931 5.393,42.828 6.139,44.5L20.861,44.5Z" style="fill:none;stroke:black;stroke-width:1.71px;"/>
    </g>
    <g transform="matrix(1,0,0,1.68182,40,-18.3409)">
        <path d="M20.861,44.5C21.607,42.828 22,40.931 22,39C22,32.929 18.191,28 13.5,28C8.809,28 5,32.929 5,39C5,40.931 5.393,42.828 6.139,44.5L20.861,44.5Z" style="fill:none;stroke:black;stroke-width:1.45px;"/>
    </g>
    <g transform="matrix(1,0,0,1,-0.875,3.55271e-15)">
        <circle cx="12.375" cy="29.375" r="5.375" style="fill:none;stroke:black;stroke-width:2px;"/>
    </g>
    <g transform="matrix(1,0,0,1,21.125,-5.375)">
        <circle cx="12.375" cy="29.375" r="5.375" style="fill:none;stroke:black;stroke-width:2px;"/>
    </g>
    <g transform="matrix(1,0,0,1,41.125,-10.75)">
        <circle cx="12.375" cy="29.375" r="5.375" style="fill:none;stroke:black;stroke-width:2px;"/>
    </g>
</svg>
