<?xml version="1.0" encoding="UTF-8" standalone="no"?>
<!DOCTYPE svg PUBLIC "-//W3C//DTD SVG 1.1//EN" "http://www.w3.org/Graphics/SVG/1.1/DTD/svg11.dtd">
<svg width="100%" height="100%" viewBox="0 0 64 64" version="1.1" xmlns="http://www.w3.org/2000/svg" xmlns:xlink="http://www.w3.org/1999/xlink" xml:space="preserve" xmlns:serif="http://www.serif.com/" style="fill-rule:evenodd;clip-rule:evenodd;stroke-miterlimit:10;">
    <path d="M55,24L22,24L22,12L55,12L62,18L55,24Z" style="fill:none;fill-rule:nonzero;stroke:black;stroke-width:2px;"/>
    <path d="M9,28L42,28L42,40L9,40L2,34L9,28Z" style="fill:none;fill-rule:nonzero;stroke:black;stroke-width:2px;"/>
    <path d="M32,40L32,64" style="fill:none;fill-rule:nonzero;stroke:black;stroke-width:2px;"/>
    <path d="M32,28L32,24" style="fill:none;fill-rule:nonzero;stroke:black;stroke-width:2px;"/>
    <rect x="12" y="32" width="8" height="1" style="fill:none;stroke:black;stroke-width:2px;stroke-linecap:round;stroke-linejoin:round;stroke-miterlimit:1.5;"/>
    <g transform="matrix(1,0,0,1,3,4)">
        <rect x="12" y="32" width="8" height="1" style="fill:none;stroke:black;stroke-width:2px;stroke-linecap:round;stroke-linejoin:round;stroke-miterlimit:1.5;"/>
    </g>
    <g transform="matrix(1,0,0,1,12,0.5)">
        <rect x="12" y="32" width="8" height="1" style="fill:none;stroke:black;stroke-width:2px;stroke-linecap:round;stroke-linejoin:round;stroke-miterlimit:1.5;"/>
    </g>
    <g transform="matrix(1,0,0,1,19,4.5)">
        <rect x="12" y="32" width="8" height="1" style="fill:none;stroke:black;stroke-width:2px;stroke-linecap:round;stroke-linejoin:round;stroke-miterlimit:1.5;"/>
    </g>
    <g transform="matrix(1,0,0,1,16,-13.5)">
        <rect x="12" y="32" width="8" height="1" style="fill:none;stroke:black;stroke-width:2px;stroke-linecap:round;stroke-linejoin:round;stroke-miterlimit:1.5;"/>
    </g>
    <g transform="matrix(2.125,0,0,1,10.5,-17.5)">
        <rect x="12" y="32" width="8" height="1" style="fill:none;stroke:black;stroke-width:1.2px;stroke-linecap:round;stroke-linejoin:round;stroke-miterlimit:1.5;"/>
    </g>
</svg>
