<?xml version="1.0" encoding="UTF-8" standalone="no"?>
<!DOCTYPE svg PUBLIC "-//W3C//DTD SVG 1.1//EN" "http://www.w3.org/Graphics/SVG/1.1/DTD/svg11.dtd">
<svg width="100%" height="100%" viewBox="0 0 80 80" version="1.1" xmlns="http://www.w3.org/2000/svg" xmlns:xlink="http://www.w3.org/1999/xlink" xml:space="preserve" xmlns:serif="http://www.serif.com/" style="fill-rule:evenodd;clip-rule:evenodd;stroke-linejoin:round;stroke-miterlimit:2;">
    <g transform="matrix(1.12911,0,0,1.12911,-3.71016,-4.93578)">
        <g transform="matrix(1,0,0,1,-0.0784302,-0.0155612)">
            <path d="M17.889,65.869L17.889,70.677L10.493,63.28L17.889,55.884L17.889,60.692L62.268,60.692L62.268,55.884L69.664,63.28L62.268,70.677L62.268,65.869L17.889,65.869Z"/>
        </g>
        <g transform="matrix(6.12323e-17,1,-1,6.12323e-17,78.5152,-1.55915)">
            <path d="M17.889,65.869L17.889,70.677L10.493,63.28L17.889,55.884L17.889,60.692L62.268,60.692L62.268,55.884L69.664,63.28L62.268,70.677L62.268,65.869L17.889,65.869Z"/>
        </g>
    </g>
</svg>
