<?xml version="1.0" encoding="UTF-8" standalone="no"?>
<!DOCTYPE svg PUBLIC "-//W3C//DTD SVG 1.1//EN" "http://www.w3.org/Graphics/SVG/1.1/DTD/svg11.dtd">
<svg width="100%" height="100%" viewBox="0 0 64 64" version="1.1" xmlns="http://www.w3.org/2000/svg" xmlns:xlink="http://www.w3.org/1999/xlink" xml:space="preserve" xmlns:serif="http://www.serif.com/" style="fill-rule:evenodd;clip-rule:evenodd;stroke-miterlimit:10;">
    <path d="M32.001,0.887C49.185,0.887 63.114,14.816 63.113,32C63.114,49.185 49.184,63.115 32,63.113C14.815,63.114 0.887,49.185 0.888,32.001C0.885,14.816 14.815,0.887 32.001,0.887Z" style="fill:none;fill-rule:nonzero;stroke:black;stroke-width:2px;"/>
    <g transform="matrix(1,0,0,1,-6,0)">
        <path d="M30,1C30,1 16,12 16,32C16,52 30,63 30,63" style="fill:none;fill-rule:nonzero;stroke:black;stroke-width:2px;"/>
    </g>
    <g transform="matrix(1,0,0,1,8,0)">
        <path d="M34,1C34,1 48,12 48,32C48,52 34,63 34,63" style="fill:none;fill-rule:nonzero;stroke:black;stroke-width:2px;"/>
    </g>
    <g transform="matrix(0.633333,0,0,2.06667,39.4667,-13.4667)">
        <circle cx="-11" cy="22" r="15" style="fill:none;stroke:black;stroke-width:1.31px;stroke-linecap:round;stroke-linejoin:round;stroke-miterlimit:1.5;"/>
    </g>
    <g transform="matrix(0.981788,0,0,1,1.12867,7)">
        <rect x="0.888" y="24" width="61.112" height="1" style="fill:none;stroke:black;stroke-width:2.02px;stroke-linecap:round;stroke-linejoin:round;stroke-miterlimit:1.5;"/>
    </g>
</svg>
