<?xml version="1.0" encoding="UTF-8" standalone="no"?>
<!DOCTYPE svg PUBLIC "-//W3C//DTD SVG 1.1//EN" "http://www.w3.org/Graphics/SVG/1.1/DTD/svg11.dtd">
<svg width="100%" height="100%" viewBox="0 0 48 48" version="1.1" xmlns="http://www.w3.org/2000/svg" xmlns:xlink="http://www.w3.org/1999/xlink" xml:space="preserve" xmlns:serif="http://www.serif.com/" style="fill-rule:evenodd;clip-rule:evenodd;stroke-linejoin:round;stroke-miterlimit:2;">
    <path d="M16.086,19.04C15.523,18.985 14.955,18.985 14.392,19.04L14.113,20.398C13.573,20.481 13.043,20.623 12.534,20.821L11.613,19.784C11.098,20.019 10.606,20.302 10.145,20.632L10.583,21.948C10.157,22.289 9.769,22.677 9.428,23.103L8.111,22.666C7.782,23.126 7.498,23.618 7.264,24.133L8.301,25.054C8.103,25.564 7.961,26.093 7.878,26.633L6.519,26.912C6.465,27.476 6.465,28.043 6.519,28.607L7.878,28.886C7.961,29.426 8.103,29.955 8.301,30.464L7.264,31.386C7.498,31.901 7.782,32.392 8.111,32.853L9.428,32.415C9.769,32.842 10.157,33.229 10.583,33.571L10.145,34.887C10.606,35.217 11.098,35.5 11.613,35.735L12.534,34.697C13.043,34.896 13.573,35.038 14.113,35.12L14.392,36.479C14.955,36.534 15.523,36.534 16.086,36.479L16.366,35.12C16.906,35.038 17.435,34.896 17.944,34.697L18.865,35.735C19.381,35.5 19.872,35.217 20.333,34.887L19.895,33.571C20.322,33.229 20.709,32.842 21.051,32.415L22.367,32.853C22.696,32.392 22.98,31.901 23.214,31.386L22.177,30.464C22.376,29.955 22.518,29.426 22.6,28.886L23.959,28.607C24.014,28.043 24.014,27.476 23.959,26.912L22.6,26.633C22.518,26.093 22.376,25.564 22.177,25.054L23.214,24.133C22.98,23.618 22.696,23.126 22.367,22.666L21.051,23.103C20.709,22.677 20.322,22.289 19.895,21.948L20.333,20.632C19.872,20.302 19.381,20.019 18.865,19.784L17.944,20.821C17.435,20.623 16.906,20.481 16.366,20.398L16.086,19.04ZM15.239,26.007C16.206,26.007 16.991,26.792 16.991,27.759C16.991,28.726 16.206,29.512 15.239,29.512C14.272,29.512 13.487,28.726 13.487,27.759C13.487,26.792 14.272,26.007 15.239,26.007Z"/>
    <g transform="matrix(1.0591,-0.117151,0.117151,1.0591,9.57221,-11.6658)">
        <path d="M16.086,19.04C15.523,18.985 14.955,18.985 14.392,19.04L14.113,20.398C13.573,20.481 13.043,20.623 12.534,20.821L11.613,19.784C11.098,20.019 10.606,20.302 10.145,20.632L10.583,21.948C10.157,22.289 9.769,22.677 9.428,23.103L8.111,22.666C7.782,23.126 7.498,23.618 7.264,24.133L8.301,25.054C8.103,25.564 7.961,26.093 7.878,26.633L6.519,26.912C6.465,27.476 6.465,28.043 6.519,28.607L7.878,28.886C7.961,29.426 8.103,29.955 8.301,30.464L7.264,31.386C7.498,31.901 7.782,32.392 8.111,32.853L9.428,32.415C9.769,32.842 10.157,33.229 10.583,33.571L10.145,34.887C10.606,35.217 11.098,35.5 11.613,35.735L12.534,34.697C13.043,34.896 13.573,35.038 14.113,35.12L14.392,36.479C14.955,36.534 15.523,36.534 16.086,36.479L16.366,35.12C16.906,35.038 17.435,34.896 17.944,34.697L18.865,35.735C19.381,35.5 19.872,35.217 20.333,34.887L19.895,33.571C20.322,33.229 20.709,32.842 21.051,32.415L22.367,32.853C22.696,32.392 22.98,31.901 23.214,31.386L22.177,30.464C22.376,29.955 22.518,29.426 22.6,28.886L23.959,28.607C24.014,28.043 24.014,27.476 23.959,26.912L22.6,26.633C22.518,26.093 22.376,25.564 22.177,25.054L23.214,24.133C22.98,23.618 22.696,23.126 22.367,22.666L21.051,23.103C20.709,22.677 20.322,22.289 19.895,21.948L20.333,20.632C19.872,20.302 19.381,20.019 18.865,19.784L17.944,20.821C17.435,20.623 16.906,20.481 16.366,20.398L16.086,19.04ZM15.239,26.007C16.206,26.007 16.991,26.792 16.991,27.759C16.991,28.726 16.206,29.512 15.239,29.512C14.272,29.512 13.487,28.726 13.487,27.759C13.487,26.792 14.272,26.007 15.239,26.007Z" style="fill:rgb(6,0,0);"/>
    </g>
    <g transform="matrix(1.31609,0,0,1.31609,12.7215,-1.0039)">
        <path d="M16.086,19.04C15.523,18.985 14.955,18.985 14.392,19.04L14.113,20.398C13.573,20.481 13.043,20.623 12.534,20.821L11.613,19.784C11.098,20.019 10.606,20.302 10.145,20.632L10.583,21.948C10.157,22.289 9.769,22.677 9.428,23.103L8.111,22.666C7.782,23.126 7.498,23.618 7.264,24.133L8.301,25.054C8.103,25.564 7.961,26.093 7.878,26.633L6.519,26.912C6.465,27.476 6.465,28.043 6.519,28.607L7.878,28.886C7.961,29.426 8.103,29.955 8.301,30.464L7.264,31.386C7.498,31.901 7.782,32.392 8.111,32.853L9.428,32.415C9.769,32.842 10.157,33.229 10.583,33.571L10.145,34.887C10.606,35.217 11.098,35.5 11.613,35.735L12.534,34.697C13.043,34.896 13.573,35.038 14.113,35.12L14.392,36.479C14.955,36.534 15.523,36.534 16.086,36.479L16.366,35.12C16.906,35.038 17.435,34.896 17.944,34.697L18.865,35.735C19.381,35.5 19.872,35.217 20.333,34.887L19.895,33.571C20.322,33.229 20.709,32.842 21.051,32.415L22.367,32.853C22.696,32.392 22.98,31.901 23.214,31.386L22.177,30.464C22.376,29.955 22.518,29.426 22.6,28.886L23.959,28.607C24.014,28.043 24.014,27.476 23.959,26.912L22.6,26.633C22.518,26.093 22.376,25.564 22.177,25.054L23.214,24.133C22.98,23.618 22.696,23.126 22.367,22.666L21.051,23.103C20.709,22.677 20.322,22.289 19.895,21.948L20.333,20.632C19.872,20.302 19.381,20.019 18.865,19.784L17.944,20.821C17.435,20.623 16.906,20.481 16.366,20.398L16.086,19.04ZM15.239,26.007C16.206,26.007 16.991,26.792 16.991,27.759C16.991,28.726 16.206,29.512 15.239,29.512C14.272,29.512 13.487,28.726 13.487,27.759C13.487,26.792 14.272,26.007 15.239,26.007Z"/>
    </g>
</svg>
