<?xml version="1.0" encoding="UTF-8" standalone="no"?>
<!DOCTYPE svg PUBLIC "-//W3C//DTD SVG 1.1//EN" "http://www.w3.org/Graphics/SVG/1.1/DTD/svg11.dtd">
<svg width="100%" height="100%" viewBox="0 0 64 64" version="1.1" xmlns="http://www.w3.org/2000/svg" xmlns:xlink="http://www.w3.org/1999/xlink" xml:space="preserve" xmlns:serif="http://www.serif.com/" style="fill-rule:evenodd;clip-rule:evenodd;stroke-linecap:round;stroke-linejoin:round;stroke-miterlimit:1.5;">
    <g transform="matrix(1.13208,0,0,1.13208,-3.66038,-7.0566)">
        <path d="M34.063,8.124C32.358,7.959 30.642,7.959 28.937,8.124L28.093,12.234C26.459,12.484 24.858,12.913 23.318,13.514L20.532,10.376C18.973,11.085 17.486,11.944 16.093,12.939L17.416,16.921C16.126,17.954 14.954,19.126 13.921,20.416L9.939,19.093C8.944,20.486 8.085,21.973 7.376,23.532L10.514,26.318C9.913,27.858 9.484,29.459 9.234,31.093L5.124,31.937C4.959,33.642 4.959,35.358 5.124,37.063L9.234,37.907C9.484,39.541 9.913,41.142 10.514,42.682L7.376,45.468C8.085,47.027 8.944,48.514 9.939,49.907L13.921,48.584C14.954,49.874 16.126,51.046 17.416,52.079L16.093,56.061C17.486,57.056 18.973,57.915 20.532,58.624L23.318,55.486C24.858,56.087 26.459,56.516 28.093,56.766L28.937,60.876C30.642,61.041 32.358,61.041 34.063,60.876L34.907,56.766C36.541,56.516 38.142,56.087 39.682,55.486L42.468,58.624C44.027,57.915 45.514,57.056 46.907,56.061L45.584,52.079C46.874,51.046 48.046,49.874 49.079,48.584L53.061,49.907C54.056,48.514 54.915,47.027 55.624,45.468L52.486,42.682C53.087,41.142 53.516,39.541 53.766,37.907L57.876,37.063C58.041,35.358 58.041,33.642 57.876,31.937L53.766,31.093C53.516,29.459 53.087,27.858 52.486,26.318L55.624,23.532C54.915,21.973 54.056,20.486 53.061,19.093L49.079,20.416C48.046,19.126 46.874,17.954 45.584,16.921L46.907,12.939C45.514,11.944 44.027,11.085 42.468,10.376L39.682,13.514C38.142,12.913 36.541,12.484 34.907,12.234L34.063,8.124ZM31.5,29.2C34.425,29.2 36.8,31.575 36.8,34.5C36.8,37.425 34.425,39.8 31.5,39.8C28.575,39.8 26.2,37.425 26.2,34.5C26.2,31.575 28.575,29.2 31.5,29.2Z" style="fill:none;stroke:black;stroke-width:1.77px;"/>
    </g>
</svg>
